<svg xmlns="http://www.w3.org/2000/svg" viewBox="0 -11.140000343322754 27.520000457763672 37.0099983215332" data-asc="0.9052734375"><g fill="#000000"><g fill="#000000" transform="translate(0, 0)"><path d="M2.00 45.87L4.13 35.47L0 35.47L0 31.84L4.86 31.84L6.67 22.97L0 22.97L0 19.34L7.40 19.34L9.52 8.86L13.18 8.86L11.06 19.34L18.75 19.34L20.87 8.86L24.56 8.86L22.44 19.34L26.66 19.34L26.66 22.97L21.70 22.97L19.87 31.84L26.66 31.84L26.66 35.47L19.14 35.47L17.02 45.87L13.35 45.87L15.45 35.47L7.79 35.47L5.66 45.87L2.00 45.87M8.52 31.84L16.19 31.84L18.02 22.97L10.33 22.97L8.52 31.84Z"/></g></g></svg>