<svg xmlns="http://www.w3.org/2000/svg" viewBox="0 -11.140000343322754 41.77000045776367 37.720001220703125" data-asc="0.9052734375"><g fill="#000000"><g fill="#000000" transform="translate(0, 0)"><path d="M0 18.07Q0 14.23 1.93 11.55Q3.86 8.86 7.52 8.86Q10.89 8.86 13.10 11.27Q15.31 13.67 15.31 18.33Q15.31 22.88 13.07 25.33Q10.84 27.78 7.57 27.78Q4.32 27.78 2.16 25.37Q0 22.95 0 18.07M7.64 11.89Q6.01 11.89 4.92 13.31Q3.83 14.72 3.83 18.51Q3.83 21.95 4.93 23.35Q6.03 24.76 7.64 24.76Q9.30 24.76 10.39 23.34Q11.47 21.92 11.47 18.16Q11.47 14.70 10.38 13.29Q9.28 11.89 7.64 11.89M7.67 46.58L27.25 8.86L30.81 8.86L11.30 46.58L7.67 46.58M23.14 36.87Q23.14 33.01 25.07 30.33Q27.00 27.66 30.69 27.66Q34.06 27.66 36.27 30.07Q38.48 32.47 38.48 37.13Q38.48 41.67 36.24 44.13Q34.01 46.58 30.71 46.58Q27.47 46.58 25.31 44.15Q23.14 41.72 23.14 36.87M30.81 30.69Q29.15 30.69 28.06 32.10Q26.98 33.52 26.98 37.30Q26.98 40.72 28.08 42.14Q29.17 43.55 30.79 43.55Q32.47 43.55 33.56 42.14Q34.64 40.72 34.64 36.96Q34.64 33.50 33.54 32.09Q32.45 30.69 30.81 30.69Z"/></g></g></svg>