<svg xmlns="http://www.w3.org/2000/svg" viewBox="0 -11.140000343322754 31.420001983642578 37.22999954223633" data-asc="0.9052734375"><g fill="#000000"><g fill="#000000" transform="translate(0, 0)"><path d="M21.61 41.04Q19.43 43.46 16.87 44.67Q14.31 45.87 11.33 45.87Q5.83 45.87 2.61 42.16Q0 39.14 0 35.40Q0 32.08 2.14 29.41Q4.27 26.73 8.52 24.71Q6.10 21.92 5.30 20.19Q4.49 18.46 4.49 16.85Q4.49 13.62 7.02 11.24Q9.55 8.86 13.38 8.86Q17.04 8.86 19.37 11.11Q21.70 13.35 21.70 16.50Q21.70 21.61 14.94 25.22L21.36 33.40Q22.46 31.25 23.07 28.42L27.64 29.39Q26.46 34.08 24.46 37.11Q26.93 40.38 30.05 42.60L27.10 46.09Q24.44 44.38 21.61 41.04M12.67 22.39Q15.53 20.70 16.37 19.43Q17.21 18.16 17.21 16.63Q17.21 14.79 16.05 13.64Q14.89 12.48 13.16 12.48Q11.38 12.48 10.19 13.62Q9.01 14.77 9.01 16.43Q9.01 17.26 9.44 18.18Q9.86 19.09 10.72 20.12L12.67 22.39M18.85 37.57L10.79 27.59Q7.23 29.71 5.98 31.53Q4.74 33.35 4.74 35.13Q4.74 37.30 6.47 39.65Q8.20 41.99 11.38 41.99Q13.35 41.99 15.47 40.76Q17.58 39.53 18.85 37.57Z"/></g></g></svg>