<svg xmlns="http://www.w3.org/2000/svg" viewBox="0 -10.67000007629395 28.34000015258789 36.54000473022461" data-asc="0.9052734375"><g fill="#000000"><g fill="#000000" transform="translate(0, 0)"><path d="M0 27.61Q0 21.26 1.31 17.40Q2.61 13.53 5.19 11.43Q7.76 9.33 11.67 9.33Q14.55 9.33 16.72 10.49Q18.90 11.65 20.31 13.83Q21.73 16.02 22.53 19.15Q23.34 22.29 23.34 27.61Q23.34 33.91 22.05 37.78Q20.75 41.65 18.18 43.76Q15.60 45.87 11.67 45.87Q6.49 45.87 3.54 42.16Q0 37.70 0 27.61M4.52 27.61Q4.52 36.43 6.58 39.34Q8.64 42.26 11.67 42.26Q14.70 42.26 16.76 39.33Q18.82 36.40 18.82 27.61Q18.82 18.77 16.76 15.87Q14.70 12.96 11.62 12.96Q8.59 12.96 6.79 15.53Q4.52 18.80 4.52 27.61Z"/></g></g></svg>
