<svg xmlns="http://www.w3.org/2000/svg" viewBox="0 -10.67000007629395 28.440000534057617 36.56999969482422" data-asc="0.9052734375"><g fill="#000000"><g fill="#000000" transform="translate(0, 0)"><path d="M0 35.82L4.39 35.23Q5.15 38.96 6.97 40.61Q8.79 42.26 11.40 42.26Q14.50 42.26 16.64 40.11Q18.77 37.96 18.77 34.79Q18.77 31.76 16.80 29.80Q14.82 27.83 11.77 27.83Q10.52 27.83 8.67 28.32L9.16 24.46Q9.59 24.51 9.86 24.51Q12.67 24.51 14.92 23.05Q17.16 21.58 17.16 18.53Q17.16 16.11 15.53 14.53Q13.89 12.94 11.30 12.94Q8.74 12.94 7.03 14.55Q5.32 16.16 4.83 19.38L0.44 18.60Q1.25 14.18 4.10 11.76Q6.96 9.33 11.21 9.33Q14.14 9.33 16.60 10.58Q19.07 11.84 20.37 14.01Q21.68 16.19 21.68 18.63Q21.68 20.95 20.43 22.85Q19.19 24.76 16.75 25.88Q19.92 26.61 21.68 28.92Q23.44 31.23 23.44 34.69Q23.44 39.38 20.02 42.64Q16.60 45.90 11.38 45.90Q6.67 45.90 3.55 43.09Q0.44 40.28 0 35.82Z"/></g></g></svg>
