<svg xmlns="http://www.w3.org/2000/svg" viewBox="0 -10.67000007629395 28.579999923706055 36.54000473022461" data-asc="0.9052734375"><g fill="#000000"><g fill="#000000" transform="translate(0, 0)"><path d="M6.81 25.85Q4.08 24.85 2.76 23.00Q1.44 21.14 1.44 18.55Q1.44 14.65 4.25 11.99Q7.06 9.33 11.72 9.33Q16.41 9.33 19.26 12.05Q22.12 14.77 22.12 18.68Q22.12 21.17 20.81 23.01Q19.51 24.85 16.85 25.85Q20.14 26.93 21.86 29.32Q23.58 31.71 23.58 35.03Q23.58 39.62 20.34 42.75Q17.09 45.87 11.79 45.87Q6.49 45.87 3.25 42.74Q0 39.60 0 34.91Q0 31.42 1.77 29.06Q3.54 26.71 6.81 25.85M5.93 18.41Q5.93 20.95 7.57 22.56Q9.20 24.17 11.82 24.17Q14.36 24.17 15.98 22.57Q17.60 20.97 17.60 18.65Q17.60 16.24 15.93 14.59Q14.26 12.94 11.77 12.94Q9.25 12.94 7.59 14.55Q5.93 16.16 5.93 18.41M4.52 34.94Q4.52 36.82 5.41 38.57Q6.30 40.33 8.06 41.30Q9.81 42.26 11.84 42.26Q14.99 42.26 17.04 40.23Q19.09 38.21 19.09 35.08Q19.09 31.91 16.98 29.83Q14.87 27.76 11.69 27.76Q8.59 27.76 6.56 29.81Q4.52 31.86 4.52 34.94Z"/></g></g></svg>
