<svg xmlns="http://www.w3.org/2000/svg" viewBox="0 -11.1899995803833 48.27000045776367 46.97999954223633" data-asc="0.9052734375"><g fill="#000000"><g fill="#000000" transform="translate(0, 0)"><path d="M25.63 41.28Q24.05 43.12 22.08 44.23Q20.12 45.34 18.14 45.34Q15.97 45.34 13.92 44.07Q11.87 42.80 10.58 40.16Q9.30 37.52 9.30 34.38Q9.30 30.49 11.29 26.60Q13.28 22.71 16.24 20.75Q19.19 18.80 21.97 18.80Q24.10 18.80 26.03 19.91Q27.95 21.02 29.35 23.29L30.18 19.51L34.55 19.51L31.03 35.89Q30.30 39.31 30.30 39.67Q30.30 40.33 30.80 40.81Q31.30 41.28 32.01 41.28Q33.30 41.28 35.40 39.79Q38.18 37.84 39.81 34.56Q41.43 31.27 41.43 27.78Q41.43 23.71 39.34 20.17Q37.26 16.63 33.12 14.50Q28.98 12.38 23.97 12.38Q18.26 12.38 13.54 15.05Q8.81 17.72 6.21 22.72Q3.61 27.71 3.61 33.42Q3.61 39.40 6.21 43.73Q8.81 48.05 13.73 50.11Q18.65 52.17 24.63 52.17Q31.03 52.17 35.35 50.02Q39.67 47.88 41.82 44.80L46.24 44.80Q45.00 47.36 41.97 50.02Q38.94 52.69 34.77 54.24Q30.59 55.79 24.71 55.79Q19.29 55.79 14.71 54.39Q10.13 53.00 6.91 50.21Q3.69 47.41 2.05 43.77Q0 39.16 0 33.81Q0 27.86 2.44 22.46Q5.42 15.84 10.90 12.33Q16.38 8.81 24.19 8.81Q30.25 8.81 35.07 11.29Q39.89 13.77 42.68 18.68Q45.04 22.90 45.04 27.86Q45.04 34.94 40.06 40.43Q35.62 45.36 30.35 45.36Q28.66 45.36 27.62 44.85Q26.59 44.34 26.10 43.38Q25.78 42.77 25.63 41.28M13.82 34.67Q13.82 38.01 15.41 39.87Q16.99 41.72 19.04 41.72Q20.41 41.72 21.92 40.91Q23.44 40.09 24.82 38.48Q26.20 36.87 27.08 34.39Q27.95 31.91 27.95 29.42Q27.95 26.10 26.31 24.27Q24.66 22.44 22.29 22.44Q20.73 22.44 19.35 23.23Q17.97 24.02 16.67 25.78Q15.38 27.54 14.60 30.05Q13.82 32.57 13.82 34.67Z"/></g></g></svg>