<svg xmlns="http://www.w3.org/2000/svg" viewBox="0 -10.529999732971191 29.90999984741211 35.78999710083008" data-asc="0.9052734375"><g fill="#000000"><g fill="#000000" transform="translate(0, 0)"><path d="M0 45.26L0 9.47L13.43 9.47Q17.53 9.47 20.01 10.56Q22.49 11.65 23.89 13.90Q25.29 16.16 25.29 18.63Q25.29 20.92 24.05 22.95Q22.80 24.98 20.29 26.22Q23.54 27.17 25.28 29.47Q27.03 31.76 27.03 34.89Q27.03 37.40 25.96 39.56Q24.90 41.72 23.34 42.90Q21.78 44.07 19.42 44.67Q17.07 45.26 13.65 45.26L0 45.26M4.74 24.51L12.48 24.51Q15.63 24.51 16.99 24.10Q18.80 23.56 19.71 22.31Q20.63 21.07 20.63 19.19Q20.63 17.41 19.78 16.05Q18.92 14.70 17.33 14.20Q15.75 13.70 11.89 13.70L4.74 13.70L4.74 24.51M4.74 41.04L13.65 41.04Q15.94 41.04 16.87 40.87Q18.51 40.58 19.60 39.89Q20.70 39.21 21.41 37.90Q22.12 36.60 22.12 34.89Q22.12 32.89 21.09 31.41Q20.07 29.93 18.25 29.33Q16.43 28.74 13.01 28.74L4.74 28.74L4.74 41.04Z"/></g></g></svg>