<svg xmlns="http://www.w3.org/2000/svg" viewBox="0 -10.529999732971191 23.270000457763672 36.37999725341797" data-asc="0.9052734375"><g fill="#000000"><g fill="#000000" transform="translate(0, 0)"><path d="M18.26 35.77L22.58 36.33Q21.88 40.80 18.96 43.32Q16.04 45.85 11.79 45.85Q6.47 45.85 3.23 42.37Q0 38.89 0 32.40Q0 28.20 1.39 25.05Q2.78 21.90 5.63 20.32Q8.47 18.75 11.82 18.75Q16.04 18.75 18.73 20.89Q21.41 23.02 22.17 26.95L17.90 27.61Q17.29 25 15.73 23.68Q14.18 22.36 11.99 22.36Q8.67 22.36 6.59 24.74Q4.52 27.12 4.52 32.28Q4.52 37.50 6.52 39.87Q8.52 42.24 11.74 42.24Q14.33 42.24 16.06 40.65Q17.80 39.06 18.26 35.77Z"/></g></g></svg>