<svg xmlns="http://www.w3.org/2000/svg" viewBox="0 -10.529999732971191 26.199996948242188 36.37999725341797" data-asc="0.9052734375"><g fill="#000000"><g fill="#000000" transform="translate(0, 0)"><path d="M19.21 36.91L23.75 37.48Q22.68 41.46 19.78 43.65Q16.87 45.85 12.35 45.85Q6.67 45.85 3.33 42.35Q0 38.84 0 32.52Q0 25.98 3.37 22.36Q6.74 18.75 12.11 18.75Q17.31 18.75 20.61 22.29Q23.90 25.83 23.90 32.25Q23.90 32.64 23.88 33.42L4.54 33.42Q4.79 37.70 6.96 39.97Q9.13 42.24 12.38 42.24Q14.79 42.24 16.50 40.97Q18.21 39.70 19.21 36.91M4.79 29.81L19.26 29.81Q18.97 26.54 17.60 24.90Q15.50 22.36 12.16 22.36Q9.13 22.36 7.07 24.39Q5.00 26.42 4.79 29.81Z"/></g></g></svg>