<svg xmlns="http://www.w3.org/2000/svg" viewBox="0 -10.529999732971191 38.57999801635742 35.78999710083008" data-asc="0.9052734375"><g fill="#000000"><g fill="#000000" transform="translate(0, 0)"><path d="M0 45.26L0 19.34L3.93 19.34L3.93 22.97Q5.15 21.07 7.18 19.91Q9.20 18.75 11.79 18.75Q14.67 18.75 16.52 19.95Q18.36 21.14 19.12 23.29Q22.19 18.75 27.12 18.75Q30.98 18.75 33.06 20.89Q35.13 23.02 35.13 27.47L35.13 45.26L30.76 45.26L30.76 28.93Q30.76 26.29 30.33 25.13Q29.91 23.97 28.78 23.27Q27.66 22.56 26.15 22.56Q23.41 22.56 21.61 24.38Q19.80 26.20 19.80 30.20L19.80 45.26L15.41 45.26L15.41 28.42Q15.41 25.49 14.33 24.02Q13.26 22.56 10.82 22.56Q8.96 22.56 7.39 23.54Q5.81 24.51 5.10 26.39Q4.39 28.27 4.39 31.81L4.39 45.26L0 45.26Z"/></g></g></svg>