<svg xmlns="http://www.w3.org/2000/svg" viewBox="0 -10.529999732971191 24.729999542236328 35.78999710083008" data-asc="0.9052734375"><g fill="#000000"><g fill="#000000" transform="translate(0, 0)"><path d="M0 45.26L0 19.34L3.96 19.34L3.96 23.02Q6.81 18.75 12.21 18.75Q14.55 18.75 16.52 19.59Q18.48 20.43 19.46 21.80Q20.43 23.17 20.83 25.05Q21.07 26.27 21.07 29.32L21.07 45.26L16.67 45.26L16.67 29.49Q16.67 26.81 16.16 25.48Q15.65 24.15 14.34 23.35Q13.04 22.56 11.28 22.56Q8.47 22.56 6.43 24.34Q4.39 26.12 4.39 31.10L4.39 45.26L0 45.26Z"/></g></g></svg>