<svg xmlns="http://www.w3.org/2000/svg" viewBox="0 -10.529999732971191 24.729999542236328 45.72999954223633" data-asc="0.9052734375"><g fill="#000000"><g fill="#000000" transform="translate(0, 0)"><path d="M0 55.20L0 19.34L4.00 19.34L4.00 22.71Q5.42 20.73 7.20 19.74Q8.98 18.75 11.52 18.75Q14.84 18.75 17.38 20.46Q19.92 22.17 21.22 25.28Q22.51 28.39 22.51 32.10Q22.51 36.08 21.08 39.27Q19.65 42.46 16.93 44.15Q14.21 45.85 11.21 45.85Q9.01 45.85 7.26 44.92Q5.52 43.99 4.39 42.58L4.39 55.20L0 55.20M3.98 32.45Q3.98 37.45 6.01 39.84Q8.03 42.24 10.91 42.24Q13.84 42.24 15.93 39.76Q18.02 37.28 18.02 32.08Q18.02 27.12 15.98 24.66Q13.94 22.19 11.11 22.19Q8.30 22.19 6.14 24.82Q3.98 27.44 3.98 32.45Z"/></g></g></svg>