<svg xmlns="http://www.w3.org/2000/svg" viewBox="0 -10.529999732971191 24.829998016357422 36.37999725341797" data-asc="0.9052734375"><g fill="#000000"><g fill="#000000" transform="translate(0, 0)"><path d="M17.09 45.26L17.09 41.46Q14.06 45.85 8.86 45.85Q6.57 45.85 4.58 44.97Q2.59 44.09 1.62 42.76Q0.66 41.43 0.27 39.50Q0 38.21 0 35.40L0 19.34L4.39 19.34L4.39 33.72Q4.39 37.16 4.66 38.35Q5.08 40.09 6.42 41.08Q7.76 42.07 9.74 42.07Q11.72 42.07 13.45 41.05Q15.19 40.04 15.91 38.29Q16.63 36.55 16.63 33.23L16.63 19.34L21.02 19.34L21.02 45.26L17.09 45.26Z"/></g></g></svg>