<svg xmlns="http://www.w3.org/2000/svg" viewBox="0 -10.529999732971191 24.419998168945312 46.31999969482422" data-asc="0.9052734375"><g fill="#000000"><g fill="#000000" transform="translate(0, 0)"><path d="M2.29 55.25L1.81 51.12Q3.25 51.51 4.32 51.51Q5.79 51.51 6.67 51.03Q7.54 50.54 8.11 49.66Q8.52 49.00 9.45 46.39Q9.57 46.02 9.84 45.31L0 19.34L4.74 19.34L10.13 34.35Q11.18 37.21 12.01 40.36Q12.77 37.33 13.82 34.45L19.36 19.34L23.75 19.34L13.89 45.70Q12.30 49.98 11.43 51.59Q10.25 53.76 8.74 54.77Q7.23 55.79 5.13 55.79Q3.86 55.79 2.29 55.25Z"/></g></g></svg>