<svg xmlns="http://www.w3.org/2000/svg" viewBox="0 -11.140000343322754 15.529998779296875 46.93000030517578" data-asc="0.9052734375"><g fill="#000000"><g fill="#000000" transform="translate(0, 0)"><path d="M0 30.32Q1.88 30.27 3.06 29.31Q4.25 28.34 4.64 26.66Q5.03 24.98 5.05 20.90Q5.08 16.82 5.20 15.53Q5.42 13.48 6.02 12.23Q6.62 10.99 7.50 10.24Q8.37 9.50 9.74 9.11Q10.67 8.86 12.77 8.86L14.14 8.86L14.14 12.70L13.38 12.70Q10.84 12.70 10.01 13.61Q9.18 14.53 9.18 17.70Q9.18 24.10 8.91 25.78Q8.47 28.39 7.41 29.81Q6.35 31.23 4.08 32.32Q6.76 33.45 7.97 35.75Q9.18 38.06 9.18 43.31Q9.18 48.07 9.28 48.97Q9.47 50.63 10.27 51.29Q11.06 51.95 13.38 51.95L14.14 51.95L14.14 55.79L12.77 55.79Q10.38 55.79 9.30 55.40Q7.74 54.83 6.71 53.58Q5.69 52.32 5.38 50.39Q5.08 48.46 5.05 44.07Q5.03 39.67 4.64 37.99Q4.25 36.30 3.06 35.33Q1.88 34.35 0 34.30L0 30.32Z"/></g></g></svg>