<svg xmlns="http://www.w3.org/2000/svg" viewBox="0.04590164124965668 29.329999923706055 23.66409683227539 35.93000411987305" data-asc="0.9052734375"><g fill="#000000"><g fill="#000000" transform="translate(0, 0)"><path d="M23.71 41.04L23.71 45.26L0.05 45.26Q0 43.68 0.56 42.21Q1.46 39.79 3.45 37.45Q5.44 35.11 9.20 32.03Q15.04 27.25 17.09 24.45Q19.14 21.66 19.14 19.17Q19.14 16.55 17.27 14.76Q15.41 12.96 12.40 12.96Q9.23 12.96 7.32 14.87Q5.42 16.77 5.40 20.14L0.88 19.68Q1.34 14.62 4.37 11.98Q7.40 9.33 12.50 9.33Q17.65 9.33 20.65 12.18Q23.66 15.04 23.66 19.26Q23.66 21.41 22.78 23.49Q21.90 25.56 19.86 27.86Q17.82 30.15 13.09 34.16Q9.13 37.48 8.01 38.66Q6.88 39.84 6.15 41.04L23.71 41.04Z"/></g></g></svg>