<svg xmlns="http://www.w3.org/2000/svg" viewBox="0 29.960000038146973 23.729999542236328 35.90999984741211" data-asc="0.9052734375"><g fill="#000000"><g fill="#000000" transform="translate(0, 0)"><path d="M0 35.89L4.61 35.50Q5.13 38.87 6.99 40.56Q8.86 42.26 11.50 42.26Q14.67 42.26 16.87 39.87Q19.07 37.48 19.07 33.52Q19.07 29.76 16.96 27.59Q14.84 25.42 11.43 25.42Q9.30 25.42 7.59 26.38Q5.88 27.34 4.91 28.88L0.78 28.34L4.25 9.96L22.05 9.96L22.05 14.16L7.76 14.16L5.83 23.78Q9.06 21.53 12.60 21.53Q17.29 21.53 20.51 24.78Q23.73 28.03 23.73 33.13Q23.73 37.99 20.90 41.53Q17.46 45.87 11.50 45.87Q6.62 45.87 3.53 43.14Q0.44 40.41 0 35.89Z"/></g></g></svg>