<svg xmlns="http://www.w3.org/2000/svg" viewBox="0 29.329999923706055 28.6299991607666 36.54000473022461" data-asc="0.9052734375"><g fill="#000000"><g fill="#000000" transform="translate(0, 0)"><path d="M23.00 18.24L18.63 18.58Q18.04 15.99 16.97 14.82Q15.19 12.94 12.57 12.94Q10.47 12.94 8.89 14.11Q6.81 15.63 5.62 18.53Q4.42 21.44 4.37 26.81Q5.96 24.39 8.25 23.22Q10.55 22.05 13.06 22.05Q17.46 22.05 20.54 25.28Q23.63 28.52 23.63 33.64Q23.63 37.01 22.18 39.90Q20.73 42.80 18.19 44.34Q15.65 45.87 12.43 45.87Q6.93 45.87 3.47 41.83Q0 37.79 0 28.52Q0 18.14 3.83 13.43Q7.18 9.33 12.84 9.33Q17.07 9.33 19.76 11.69Q22.46 14.06 23.00 18.24M5.05 33.67Q5.05 35.94 6.02 38.01Q6.98 40.09 8.72 41.17Q10.45 42.26 12.35 42.26Q15.14 42.26 17.14 40.01Q19.14 37.77 19.14 33.91Q19.14 30.20 17.16 28.06Q15.19 25.93 12.18 25.93Q9.20 25.93 7.13 28.06Q5.05 30.20 5.05 33.67Z"/></g></g></svg>
