<svg xmlns="http://www.w3.org/2000/svg" viewBox="0 29.329999923706055 28.540000915527344 36.54000473022461" data-asc="0.9052734375"><g fill="#000000"><g fill="#000000" transform="translate(0, 0)"><path d="M0.66 36.99L4.88 36.60Q5.42 39.58 6.93 40.92Q8.45 42.26 10.82 42.26Q12.84 42.26 14.37 41.33Q15.89 40.41 16.87 38.85Q17.85 37.30 18.51 34.67Q19.17 32.03 19.17 29.30Q19.17 29.00 19.14 28.42Q17.82 30.52 15.54 31.82Q13.26 33.13 10.60 33.13Q6.15 33.13 3.08 29.91Q0 26.68 0 21.41Q0 15.97 3.21 12.65Q6.42 9.33 11.25 9.33Q14.75 9.33 17.64 11.21Q20.53 13.09 22.03 16.56Q23.54 20.04 23.54 26.64Q23.54 33.50 22.05 37.56Q20.56 41.63 17.61 43.75Q14.67 45.87 10.72 45.87Q6.52 45.87 3.86 43.54Q1.20 41.21 0.66 36.99M18.65 21.19Q18.65 17.41 16.64 15.19Q14.62 12.96 11.79 12.96Q8.86 12.96 6.69 15.36Q4.52 17.75 4.52 21.56Q4.52 24.98 6.58 27.11Q8.64 29.25 11.67 29.25Q14.72 29.25 16.69 27.11Q18.65 24.98 18.65 21.19Z"/></g></g></svg>
