<svg xmlns="http://www.w3.org/2000/svg" viewBox="0 26.179999828338623 26.25 44.23999786376953" data-asc="0.9052734375"><g fill="#000000"><g fill="#000000" transform="translate(0, 0)"><path d="M10.67 50.42L10.67 46.02Q7.37 45.61 5.31 44.54Q3.25 43.48 1.75 41.11Q0.24 38.75 0 35.33L4.42 34.50Q4.93 38.04 6.23 39.70Q8.08 42.04 10.67 42.31L10.67 28.32Q7.96 27.81 5.13 26.22Q3.03 25.05 1.89 22.97Q0.76 20.90 0.76 18.26Q0.76 13.57 4.08 10.67Q6.30 8.72 10.67 8.28L10.67 6.18L13.26 6.18L13.26 8.28Q17.09 8.64 19.34 10.52Q22.22 12.92 22.80 17.09L18.26 17.77Q17.87 15.19 16.64 13.81Q15.41 12.43 13.26 11.99L13.26 24.66Q16.58 25.49 17.65 25.95Q19.70 26.86 21.00 28.15Q22.29 29.44 22.99 31.23Q23.68 33.01 23.68 35.08Q23.68 39.65 20.78 42.70Q17.87 45.75 13.26 45.97L13.26 50.42L10.67 50.42M10.67 11.94Q8.11 12.33 6.63 13.99Q5.15 15.65 5.15 17.92Q5.15 20.17 6.41 21.68Q7.67 23.19 10.67 24.10L10.67 11.94M13.26 42.31Q15.82 41.99 17.49 40.09Q19.17 38.18 19.17 35.38Q19.17 32.98 17.98 31.53Q16.80 30.08 13.26 28.93L13.26 42.31Z"/></g></g></svg>