<svg xmlns="http://www.w3.org/2000/svg" viewBox="0 28.859999656677246 25.829998016357422 36.39999771118164" data-asc="0.9052734375"><g fill="#000000"><g fill="#000000" transform="translate(0, 0)"><path d="M9.33 36.45Q9.30 35.57 9.30 35.13Q9.30 32.54 10.03 30.66Q10.57 29.25 11.77 27.81Q12.65 26.76 14.93 24.74Q17.21 22.73 17.90 21.53Q18.58 20.34 18.58 18.92Q18.58 16.36 16.58 14.42Q14.58 12.48 11.67 12.48Q8.86 12.48 6.98 14.23Q5.10 15.99 4.52 19.73L0 19.19Q0.61 14.18 3.63 11.52Q6.64 8.86 11.60 8.86Q16.85 8.86 19.97 11.72Q23.10 14.58 23.10 18.63Q23.10 20.97 22.00 22.95Q20.90 24.93 17.70 27.76Q15.55 29.66 14.89 30.57Q14.23 31.47 13.92 32.64Q13.60 33.81 13.55 36.45L9.33 36.45M9.06 45.26L9.06 40.26L14.06 40.26L14.06 45.26L9.06 45.26Z"/></g></g></svg>