<svg xmlns="http://www.w3.org/2000/svg" viewBox="0 29.47000026702881 32.46999740600586 35.78999710083008" data-asc="0.9052734375"><g fill="#000000"><g fill="#000000" transform="translate(0, 0)"><path d="M0 45.26L0 9.47L12.33 9.47Q16.50 9.47 18.70 9.99Q21.78 10.69 23.95 12.55Q26.78 14.94 28.19 18.66Q29.59 22.39 29.59 27.17Q29.59 31.25 28.64 34.40Q27.69 37.55 26.20 39.61Q24.71 41.67 22.94 42.86Q21.17 44.04 18.66 44.65Q16.16 45.26 12.92 45.26L0 45.26M4.74 41.04L12.38 41.04Q15.92 41.04 17.93 40.38Q19.95 39.72 21.14 38.53Q22.83 36.84 23.77 34.00Q24.71 31.15 24.71 27.10Q24.71 21.48 22.86 18.47Q21.02 15.45 18.38 14.43Q16.48 13.70 12.26 13.70L4.74 13.70L4.74 41.04Z"/></g></g></svg>