<svg xmlns="http://www.w3.org/2000/svg" viewBox="0 28.859999656677246 36.45000076293945 37.0099983215332" data-asc="0.9052734375"><g fill="#000000"><g fill="#000000" transform="translate(0, 0)"><path d="M17.94 31.23L17.94 27.03L33.11 27.00L33.11 40.28Q29.61 43.07 25.90 44.47Q22.19 45.87 18.29 45.87Q13.01 45.87 8.70 43.62Q4.39 41.36 2.20 37.08Q0 32.81 0 27.54Q0 22.31 2.19 17.79Q4.37 13.26 8.47 11.06Q12.57 8.86 17.92 8.86Q21.80 8.86 24.94 10.12Q28.08 11.38 29.86 13.62Q31.64 15.87 32.57 19.48L28.30 20.65Q27.49 17.92 26.29 16.36Q25.10 14.79 22.88 13.85Q20.65 12.92 17.94 12.92Q14.70 12.92 12.33 13.90Q9.96 14.89 8.51 16.50Q7.06 18.12 6.25 20.04Q4.88 23.36 4.88 27.25Q4.88 32.03 6.53 35.25Q8.18 38.48 11.33 40.04Q14.48 41.60 18.02 41.60Q21.09 41.60 24.02 40.42Q26.95 39.23 28.47 37.89L28.47 31.23L17.94 31.23Z"/></g></g></svg>