<svg xmlns="http://www.w3.org/2000/svg" viewBox="0 28.84000015258789 36.70000076293945 37.029998779296875" data-asc="0.9052734375"><g fill="#000000"><g fill="#000000" transform="translate(0, 0)"><path d="M0 27.83Q0 18.92 4.79 13.88Q9.57 8.84 17.14 8.84Q22.09 8.84 26.07 11.21Q30.05 13.57 32.14 17.81Q34.23 22.05 34.23 27.42Q34.23 32.86 32.03 37.16Q29.83 41.46 25.81 43.66Q21.78 45.87 17.11 45.87Q12.06 45.87 8.08 43.43Q4.10 40.99 2.05 36.77Q0 32.54 0 27.83M4.88 27.91Q4.88 34.38 8.36 38.10Q11.84 41.82 17.09 41.82Q22.44 41.82 25.89 38.06Q29.35 34.30 29.35 27.39Q29.35 23.02 27.87 19.76Q26.39 16.50 23.55 14.71Q20.70 12.92 17.16 12.92Q12.13 12.92 8.51 16.37Q4.88 19.82 4.88 27.91Z"/></g></g></svg>