<svg xmlns="http://www.w3.org/2000/svg" viewBox="0 28.84000015258789 36.96999740600586 39.209999084472656" data-asc="0.9052734375"><g fill="#000000"><g fill="#000000" transform="translate(0, 0)"><path d="M28.83 41.43Q32.13 43.70 34.91 44.75L33.52 48.05Q29.66 46.66 25.83 43.65Q21.85 45.87 17.04 45.87Q12.18 45.87 8.23 43.53Q4.27 41.19 2.14 36.94Q0 32.69 0 27.37Q0 22.07 2.15 17.72Q4.30 13.38 8.26 11.11Q12.23 8.84 17.14 8.84Q22.09 8.84 26.07 11.19Q30.05 13.55 32.14 17.79Q34.23 22.02 34.23 27.34Q34.23 31.76 32.89 35.29Q31.54 38.82 28.83 41.43M18.41 35.38Q22.51 36.52 25.17 38.79Q29.35 34.99 29.35 27.34Q29.35 23.00 27.87 19.75Q26.39 16.50 23.55 14.71Q20.70 12.92 17.16 12.92Q11.87 12.92 8.37 16.54Q4.88 20.17 4.88 27.37Q4.88 34.35 8.34 38.09Q11.79 41.82 17.16 41.82Q19.70 41.82 21.95 40.87Q19.73 39.43 17.26 38.82L18.41 35.38Z"/></g></g></svg>