<svg xmlns="http://www.w3.org/2000/svg" viewBox="0 29.47000026702881 32.39999771118164 36.39999771118164" data-asc="0.9052734375"><g fill="#000000"><g fill="#000000" transform="translate(0, 0)"><path d="M23.41 9.47L28.15 9.47L28.15 30.15Q28.15 35.55 26.93 38.72Q25.71 41.89 22.52 43.88Q19.34 45.87 14.16 45.87Q9.13 45.87 5.93 44.14Q2.73 42.41 1.37 39.12Q0 35.84 0 30.15L0 9.47L4.74 9.47L4.74 30.13Q4.74 34.79 5.60 37.00Q6.47 39.21 8.58 40.41Q10.69 41.60 13.75 41.60Q18.97 41.60 21.19 39.23Q23.41 36.87 23.41 30.13L23.41 9.47Z"/></g></g></svg>