<svg xmlns="http://www.w3.org/2000/svg" viewBox="0 29.47000026702881 26.21999740600586 36.37999725341797" data-asc="0.9052734375"><g fill="#000000"><g fill="#000000" transform="translate(0, 0)"><path d="M18.41 42.07Q15.97 44.14 13.71 45.00Q11.45 45.85 8.86 45.85Q4.59 45.85 2.29 43.76Q0 41.67 0 38.43Q0 36.52 0.87 34.95Q1.73 33.37 3.14 32.42Q4.54 31.47 6.30 30.98Q7.59 30.64 10.21 30.32Q15.53 29.69 18.04 28.81Q18.07 27.91 18.07 27.66Q18.07 24.98 16.82 23.88Q15.14 22.39 11.82 22.39Q8.72 22.39 7.24 23.47Q5.76 24.56 5.05 27.32L0.76 26.73Q1.34 23.97 2.69 22.28Q4.03 20.58 6.57 19.67Q9.11 18.75 12.45 18.75Q15.77 18.75 17.85 19.53Q19.92 20.31 20.90 21.50Q21.88 22.68 22.27 24.49Q22.49 25.61 22.49 28.54L22.49 34.40Q22.49 40.53 22.77 42.15Q23.05 43.77 23.88 45.26L19.29 45.26Q18.60 43.90 18.41 42.07M18.04 32.25Q15.65 33.23 10.86 33.91Q8.15 34.30 7.03 34.79Q5.91 35.28 5.30 36.22Q4.69 37.16 4.69 38.31Q4.69 40.06 6.02 41.24Q7.35 42.41 9.91 42.41Q12.45 42.41 14.43 41.30Q16.41 40.19 17.33 38.26Q18.04 36.77 18.04 33.86L18.04 32.25Z"/></g></g></svg>