<svg xmlns="http://www.w3.org/2000/svg" viewBox="0 29.47000026702881 24.759998321533203 36.37999725341797" data-asc="0.9052734375"><g fill="#000000"><g fill="#000000" transform="translate(0, 0)"><path d="M4.08 45.26L0 45.26L0 9.47L4.39 9.47L4.39 22.24Q7.18 18.75 11.50 18.75Q13.89 18.75 16.03 19.71Q18.16 20.68 19.54 22.42Q20.92 24.17 21.70 26.64Q22.49 29.10 22.49 31.91Q22.49 38.57 19.19 42.21Q15.89 45.85 11.28 45.85Q6.69 45.85 4.08 42.02L4.08 45.26M4.03 32.10Q4.03 36.77 5.30 38.84Q7.37 42.24 10.91 42.24Q13.79 42.24 15.89 39.73Q17.99 37.23 17.99 32.28Q17.99 27.20 15.98 24.78Q13.96 22.36 11.11 22.36Q8.23 22.36 6.13 24.87Q4.03 27.37 4.03 32.10Z"/></g></g></svg>