<svg xmlns="http://www.w3.org/2000/svg" viewBox="0 29.47000026702881 26.31999969482422 36.37999725341797" data-asc="0.9052734375"><g fill="#000000"><g fill="#000000" transform="translate(0, 0)"><path d="M18.41 45.26L18.41 41.99Q15.94 45.85 11.16 45.85Q8.06 45.85 5.46 44.14Q2.86 42.43 1.43 39.37Q0 36.30 0 32.32Q0 28.44 1.29 25.28Q2.59 22.12 5.18 20.43Q7.76 18.75 10.96 18.75Q13.31 18.75 15.14 19.74Q16.97 20.73 18.12 22.31L18.12 9.47L22.49 9.47L22.49 45.26L18.41 45.26M4.52 32.32Q4.52 37.30 6.62 39.77Q8.72 42.24 11.57 42.24Q14.45 42.24 16.47 39.88Q18.48 37.52 18.48 32.69Q18.48 27.37 16.43 24.88Q14.38 22.39 11.38 22.39Q8.45 22.39 6.48 24.78Q4.52 27.17 4.52 32.32Z"/></g></g></svg>