<svg xmlns="http://www.w3.org/2000/svg" viewBox="0 29.47000026702881 26.419998168945312 46.31999969482422" data-asc="0.9052734375"><g fill="#000000"><g fill="#000000" transform="translate(0, 0)"><path d="M0.88 47.41L5.15 48.05Q5.42 50.02 6.64 50.93Q8.28 52.15 11.11 52.15Q14.16 52.15 15.82 50.93Q17.48 49.71 18.07 47.51Q18.41 46.17 18.38 41.87Q15.50 45.26 11.21 45.26Q5.86 45.26 2.93 41.41Q0 37.55 0 32.15Q0 28.44 1.34 25.31Q2.69 22.17 5.24 20.46Q7.79 18.75 11.23 18.75Q15.82 18.75 18.80 22.46L18.80 19.34L22.85 19.34L22.85 41.75Q22.85 47.80 21.62 50.33Q20.39 52.86 17.71 54.32Q15.04 55.79 11.13 55.79Q6.49 55.79 3.64 53.70Q0.78 51.61 0.88 47.41M4.52 31.84Q4.52 36.94 6.54 39.28Q8.57 41.63 11.62 41.63Q14.65 41.63 16.70 39.29Q18.75 36.96 18.75 31.98Q18.75 27.22 16.64 24.80Q14.53 22.39 11.55 22.39Q8.62 22.39 6.57 24.77Q4.52 27.15 4.52 31.84Z"/></g></g></svg>