<svg xmlns="http://www.w3.org/2000/svg" viewBox="0 29.47000026702881 26.270000457763672 45.72999954223633" data-asc="0.9052734375"><g fill="#000000"><g fill="#000000" transform="translate(0, 0)"><path d="M18.07 55.20L18.07 42.50Q17.04 43.95 15.20 44.90Q13.35 45.85 11.28 45.85Q6.67 45.85 3.33 42.16Q0 38.48 0 32.06Q0 28.15 1.35 25.05Q2.71 21.95 5.29 20.35Q7.86 18.75 10.94 18.75Q15.75 18.75 18.51 22.80L18.51 19.34L22.46 19.34L22.46 55.20L18.07 55.20M4.52 32.23Q4.52 37.23 6.62 39.73Q8.72 42.24 11.65 42.24Q14.45 42.24 16.48 39.86Q18.51 37.48 18.51 32.62Q18.51 27.44 16.37 24.83Q14.23 22.22 11.35 22.22Q8.50 22.22 6.51 24.65Q4.52 27.08 4.52 32.23Z"/></g></g></svg>