<svg xmlns="http://www.w3.org/2000/svg" viewBox="0 29.47000026702881 23.68000030517578 36.37999725341797" data-asc="0.9052734375"><g fill="#000000"><g fill="#000000" transform="translate(0, 0)"><path d="M0 37.52L4.35 36.84Q4.71 39.45 6.38 40.84Q8.06 42.24 11.06 42.24Q14.09 42.24 15.55 41.00Q17.02 39.77 17.02 38.11Q17.02 36.62 15.72 35.77Q14.82 35.18 11.23 34.28Q6.40 33.06 4.53 32.17Q2.66 31.27 1.70 29.70Q0.73 28.13 0.73 26.22Q0.73 24.49 1.53 23.01Q2.32 21.53 3.69 20.56Q4.71 19.80 6.48 19.27Q8.25 18.75 10.28 18.75Q13.33 18.75 15.64 19.63Q17.94 20.51 19.04 22.01Q20.14 23.51 20.56 26.03L16.26 26.61Q15.97 24.61 14.56 23.49Q13.16 22.36 10.60 22.36Q7.57 22.36 6.27 23.36Q4.98 24.37 4.98 25.71Q4.98 26.56 5.52 27.25Q6.05 27.95 7.20 28.42Q7.86 28.66 11.08 29.54Q15.75 30.79 17.59 31.58Q19.43 32.37 20.48 33.89Q21.53 35.40 21.53 37.65Q21.53 39.84 20.25 41.78Q18.97 43.73 16.55 44.79Q14.14 45.85 11.08 45.85Q6.03 45.85 3.38 43.75Q0.73 41.65 0 37.52Z"/></g></g></svg>