<svg xmlns="http://www.w3.org/2000/svg" viewBox="0 29.47000026702881 13.229999542236328 36.13999938964844" data-asc="0.9052734375"><g fill="#000000"><g fill="#000000" transform="translate(0, 0)"><path d="M12.01 41.33L12.65 45.21Q10.79 45.61 9.33 45.61Q6.93 45.61 5.62 44.85Q4.30 44.09 3.76 42.86Q3.22 41.63 3.22 37.67L3.22 22.75L0 22.75L0 19.34L3.22 19.34L3.22 12.92L7.59 10.28L7.59 19.34L12.01 19.34L12.01 22.75L7.59 22.75L7.59 37.92Q7.59 39.79 7.82 40.33Q8.06 40.87 8.58 41.19Q9.11 41.50 10.08 41.50Q10.82 41.50 12.01 41.33Z"/></g></g></svg>