<svg xmlns="http://www.w3.org/2000/svg" viewBox="0 28.859999656677246 15.770000457763672 46.93000030517578" data-asc="0.9052734375"><g fill="#000000"><g fill="#000000" transform="translate(0, 0)"><path d="M14.14 30.32L14.14 34.30Q12.26 34.35 11.07 35.33Q9.89 36.30 9.50 37.98Q9.11 39.65 9.08 43.73Q9.06 47.80 8.94 49.10Q8.72 51.17 8.12 52.40Q7.52 53.64 6.64 54.38Q5.76 55.13 4.39 55.52Q3.47 55.79 1.37 55.79L0 55.79L0 51.95L0.76 51.95Q3.30 51.95 4.13 51.04Q4.96 50.12 4.96 46.92Q4.96 40.82 5.18 39.18Q5.57 36.47 6.74 34.85Q7.91 33.23 10.06 32.32Q7.25 30.98 6.10 28.77Q4.96 26.56 4.96 21.31Q4.96 16.55 4.83 15.63Q4.66 13.99 3.87 13.34Q3.08 12.70 0.76 12.70L0 12.70L0 8.86L1.37 8.86Q3.76 8.86 4.83 9.25Q6.40 9.79 7.42 11.06Q8.45 12.33 8.75 14.26Q9.06 16.19 9.08 20.58Q9.11 24.98 9.50 26.65Q9.89 28.32 11.07 29.30Q12.26 30.27 14.14 30.32Z"/></g></g></svg>