<svg xmlns="http://www.w3.org/2000/svg" viewBox="0 29.47000026702881 27.299999237060547 35.78999710083008" data-asc="0.9052734375"><g fill="#000000"><g fill="#000000" transform="translate(0, 0)"><path d="M0 31.67L0 26.66Q2.59 23.73 6.79 23.73Q8.25 23.73 9.86 24.16Q11.47 24.58 14.45 25.85Q16.14 26.56 16.98 26.78Q17.82 27.00 18.68 27.00Q20.26 27.00 21.96 26.05Q23.66 25.10 24.98 23.66L24.98 28.83Q23.41 30.30 21.81 30.96Q20.21 31.62 18.21 31.62Q16.75 31.62 15.42 31.27Q14.09 30.93 11.19 29.64Q8.30 28.34 6.37 28.34Q4.81 28.34 3.43 29.02Q2.05 29.69 0 31.67Z"/></g></g></svg>